<svg xmlns="http://www.w3.org/2000/svg" viewBox="0 0 504 504" xml:space="preserve"><path style="fill:#df5c4e" d="M45.6 426.6h416.8c20.8 0 37.6-18.8 37.6-39.6v-51.6H8V387c0 20.8 16.8 39.6 37.6 39.6m57.2-74c14.4 0 25.6 11.6 25.6 25.6 0 14.4-11.6 25.6-25.6 25.6-14.4 0-25.6-11.6-25.6-25.6-.4-14 11.2-25.6 25.6-25.6"/><path style="fill:#f4efef" d="M462.4 81.4H45.6C24.8 81.4 8 96.2 8 117v218.4h492V117c0-20.4-16.8-35.6-37.6-35.6M329.2 264.2c0 9.6-8 19.6-17.6 19.6H198c-8.8 0-15.6-8.8-15.6-17.6V152.6c0-9.6 8-15.6 17.6-15.6h111.6c9.6 0 17.6 6 17.6 15.6z"/><path style="fill:#ccc" d="M325.6 154.6v-2c0-7.6-6-11.6-13.6-11.6h-2c8.4 0 15.6 5.2 15.6 13.6"/><path style="fill:#f4efef" d="M102.8 356.6c-12 0-22 9.6-22 22s9.6 22 22 22c12 0 22-9.6 22-22s-10-22-22-22"/><path style="fill:#ccc" d="M198.4 283.8h2c-9.6 0-17.6-10-17.6-19.6v2c-.4 8.8 6.8 17.6 15.6 17.6"/><path style="fill:#df5c4e" d="M309.6 141H200c-7.6 0-13.6 4-13.6 11.6v111.6c0 7.6 6 15.6 13.6 15.6h111.6c7.6 0 13.6-8 13.6-15.6V154.6c.4-8.4-6.8-13.6-15.6-13.6"/><path d="M460.4 430.6H43.6C19.6 430.6 0 411 0 387V117c0-24 19.6-43.6 43.6-43.6h416.8c24 0 43.6 19.6 43.6 43.6v270c0 24.4-19.6 43.6-43.6 43.6M43.6 81.8C24 81.8 8 97.8 8 117.4v270C8 407 24 423 43.6 423h416.8c19.6 0 35.6-16 35.6-35.6v-270c0-19.6-16-35.6-35.6-35.6z"/><path d="M75.6 383H40c-2.4 0-4-1.6-4-4s1.6-4 4-4h35.6c2.4 0 4 1.6 4 4s-2 4-4 4m396.8 0H127.2c-2.4 0-4-1.6-4-4s1.6-4 4-4h345.2c2.4 0 4 1.6 4 4s-2 4-4 4m-79.6-47.6H4c-2.4 0-4-1.6-4-4s1.6-4 4-4h388.8c2.4 0 4 1.6 4 4s-1.6 4-4 4m107.2 0h-51.6c-2.4 0-4-1.6-4-4s1.6-4 4-4H500c2.4 0 4 1.6 4 4s-1.6 4-4 4"/><path d="M102.8 406.2c-15.2 0-28-12.4-28-28s12.4-28 28-28 28 12.4 28 28-12.8 28-28 28m0-47.6c-10.8 0-20 8.8-20 20s8.8 20 20 20 20-8.8 20-20-9.2-20-20-20m206.8-74.8H198c-10.8 0-19.6-8.8-19.6-19.6V152.6c0-10.8 8.8-19.6 19.6-19.6h111.6c10.8 0 19.6 8.8 19.6 19.6v111.6c.4 10.8-8.8 19.6-19.6 19.6M198.4 141c-6.4 0-11.6 5.2-11.6 11.6v111.6c0 6.4 5.2 11.6 11.6 11.6H310c6.4 0 11.6-5.2 11.6-11.6V152.6c0-6.4-5.2-11.6-11.6-11.6z"/></svg>